<svg version="1.1" xmlns="http://www.w3.org/2000/svg" xmlns:xlink="http://www.w3.org/1999/xlink" width="50" height="50" viewBox="0,0,256,256"><g fill="#cd06ff" fill-rule="nonzero" stroke="none" stroke-width="1" stroke-linecap="butt" stroke-linejoin="miter" stroke-miterlimit="10" stroke-dasharray="" stroke-dashoffset="0" font-family="none" font-weight="none" font-size="none" text-anchor="none" style="mix-blend-mode: normal"><g transform="translate(0.0009,-0.00666) scale(5.12,5.12)"><path d="M25.0005,0c-13.8058,0 -25.00065,11.1936 -25.00065,25.0006c0,10.2372 6.15577,19.0308 14.96475,22.8975c-0.0705,-1.7455 -0.0135,-3.8423 0.4352,-5.7391c0.4808,-2.0308 3.2167,-13.6231 3.2167,-13.6231c0,0 -0.7987,-1.5962 -0.7987,-3.9551c0,-3.7045 2.1474,-6.4731 4.8205,-6.4731c2.2737,0 3.3724,1.7077 3.3724,3.7532c0,2.2859 -1.457,5.7026 -2.207,8.8718c-0.6269,2.6532 1.3301,4.8154 3.9461,4.8154c4.7366,0 7.9263,-6.0834 7.9263,-13.2923c0,-5.4776 -3.6897,-9.5789 -10.4019,-9.5789c-7.584,0 -12.3083,5.6552 -12.3083,11.9718c0,2.1795 0.6423,3.7148 1.6487,4.9026c0.4622,0.5468 0.5263,0.7667 0.359,1.3949c-0.1199,0.4596 -0.3955,1.5666 -0.509,2.0057c-0.166,0.6334 -0.6789,0.859 -1.2519,0.6257c-3.49298,-1.4263 -5.1199,-5.2513 -5.1199,-9.5513c0,-7.1026 5.9891,-15.61732 17.8673,-15.61732c9.5455,0 15.8276,6.90702 15.8276,14.32302c0,9.8058 -5.4526,17.1327 -13.4898,17.1327c-2.6981,0 -5.2372,-1.4596 -6.107,-3.116c0,0 -1.4513,5.759 -1.7584,6.8731c-0.5301,1.9276 -1.5679,3.8545 -2.5166,5.3551c2.3003,0.6802 4.6865,1.0256 7.0852,1.0257c13.8052,-0.0013 24.9987,-11.1955 24.9987,-25.002c0,-13.807 -11.1935,-25.0006 -24.9993,-25.0006z"></path></g></g></svg>