<svg version="1.1" xmlns="http://www.w3.org/2000/svg" xmlns:xlink="http://www.w3.org/1999/xlink" width="50" height="50" viewBox="0,0,256,256"><g fill="#cd06ff" fill-rule="evenodd" stroke="none" stroke-width="1" stroke-linecap="butt" stroke-linejoin="miter" stroke-miterlimit="10" stroke-dasharray="" stroke-dashoffset="0" font-family="none" font-weight="none" font-size="none" text-anchor="none" style="mix-blend-mode: normal"><g transform="translate(0.00057,0.00026) scale(5.12,5.12)"><path d="M44.7441,9.66919c3.4142,4.38021 5.2644,9.77711 5.2558,15.33071c0,13.8052 -11.1949,25 -24.9993,25c-9.7135,0 -18.13463,-5.5423 -22.27309,-13.6352h10.89619c5.1923,0 8.8192,-2.7987 8.8192,-7.2724c0,-9.4815 -10.9378,-5.6186 -10.9378,-8.9834c0,-1.6211 1.3006,-2.2109 3.6807,-2.2109h7.5834c2.1019,0 4.5743,0.377 4.5743,2.6705v7.5558c0,5.4712 4.2724,8.2397 8.7006,8.2397c4.5039,0 8.6994,-2.7685 8.6994,-8.2397v-18.45511z"></path><path d="M25.0005,0.00002c5.0168,-0.00701 9.9185,1.5026 14.0621,4.33077v23.97051c0,1.6615 -1.3589,3.0211 -3.0179,3.0211c-1.6609,0 -3.0186,-1.3596 -3.0186,-3.0211v-7.1827c0,-5.734 -2.9019,-8.1192 -6.6814,-8.1192h-12.3006c-4.45322,0 -8.14745,2.8346 -8.14745,7.3295c0,2.3 0.98525,5.6705 5.64485,6.5064c3.7955,0.6833 5.2936,0.4846 5.2936,2.5153c0,1.9718 -2.209,1.9718 -5.125,1.9718h-10.90191c-0.53851,-2.0642 -0.81017,-4.189 -0.80833,-6.3224c0,-13.8019 11.19614,-24.99998 25.00064,-24.99998z"></path></g></g></svg>