<svg version="1.1" xmlns="http://www.w3.org/2000/svg" xmlns:xlink="http://www.w3.org/1999/xlink" width="48" height="48" viewBox="0,0,256,256"><g fill="#eadeed" fill-rule="nonzero" stroke="none" stroke-width="1" stroke-linecap="butt" stroke-linejoin="miter" stroke-miterlimit="10" stroke-dasharray="" stroke-dashoffset="0" font-family="none" font-weight="none" font-size="none" text-anchor="none" style="mix-blend-mode: normal"><g transform="translate(0.00059,0) scale(5.33333,5.33333)"><path d="M47.9999,24c0,6.3652 -2.5286,12.4697 -7.0295,16.9706c-4.5008,4.5008 -10.6053,7.0294 -16.9705,7.0294c-6.3652,0 -12.4697,-2.5286 -16.97058,-7.0294c-4.50088,-4.5009 -7.02944,-10.6054 -7.02944,-16.9706c0,-6.3652 2.52856,-12.4697 7.02944,-16.97056c4.50088,-4.50088 10.60538,-7.02944 16.97058,-7.02944c6.3652,0 12.4697,2.52856 16.9705,7.02944c4.5009,4.50086 7.0295,10.60536 7.0295,16.97056zM24.8609,17.718c-2.334,0.972 -7.002,2.982 -13.998,6.03c-1.13402,0.45 -1.73102,0.894 -1.78502,1.326c-0.09,0.729 0.825,1.017 2.07002,1.41l0.525,0.165c1.224,0.399 2.874,0.864 3.729,0.882c0.78,0.018 1.647,-0.3 2.604,-0.96c6.537,-4.413 9.912,-6.642 10.122,-6.69c0.15,-0.036 0.36,-0.078 0.498,0.048c0.141,0.123 0.126,0.36 0.111,0.423c-0.09,0.387 -3.681,3.723 -5.538,5.451c-0.579,0.54 -0.99,0.921 -1.074,1.008c-0.185,0.189 -0.373,0.3751 -0.564,0.558c-1.14,1.098 -1.992,1.92 0.045,3.264c0.981,0.648 1.767,1.179 2.55,1.713c0.852,0.582 1.704,1.161 2.808,1.887c0.279,0.18 0.549,0.375 0.81,0.561c0.993,0.708 1.89,1.344 2.991,1.242c0.642,-0.06 1.305,-0.66 1.641,-2.46c0.795,-4.251 2.358,-13.458 2.718,-17.253c0.0219,-0.3155 0.0089,-0.6324 -0.039,-0.945c-0.0283,-0.2522 -0.1503,-0.4846 -0.342,-0.651c-0.273,-0.1884 -0.5984,-0.2861 -0.93,-0.279c-0.9,0.015 -2.289,0.498 -8.952,3.27z"></path></g></g></svg>