<svg version="1.1" xmlns="http://www.w3.org/2000/svg" xmlns:xlink="http://www.w3.org/1999/xlink" width="48" height="48" viewBox="0,0,256,256"><g fill="#cd06ff" fill-rule="nonzero" stroke="none" stroke-width="1" stroke-linecap="butt" stroke-linejoin="miter" stroke-miterlimit="10" stroke-dasharray="" stroke-dashoffset="0" font-family="none" font-weight="none" font-size="none" text-anchor="none" style="mix-blend-mode: normal"><g transform="translate(0.00059,0) scale(5.33333,5.33333)"><path d="M23.9999,0c-13.255,0 -24.00002,10.745 -24.00002,24c0,13.255 10.74502,24 24.00002,24c13.255,0 24,-10.745 24,-24c0,-13.255 -10.745,-24 -24,-24zM33.2299,27.0775c0,0 2.1225,2.095 2.645,3.0675c0.015,0.02 0.0225,0.04 0.0275,0.05c0.2125,0.3575 0.2625,0.635 0.1575,0.8425c-0.175,0.345 -0.775,0.515 -0.98,0.53h-3.75c-0.26,0 -0.805,-0.0675 -1.465,-0.5225c-0.5075,-0.355 -1.0075,-0.9375 -1.495,-1.505c-0.7275,-0.845 -1.3575,-1.575 -1.9925,-1.575c-0.0807,-0.0001 -0.1608,0.0125 -0.2375,0.0375c-0.48,0.155 -1.095,0.84 -1.095,2.665c0,0.57 -0.45,0.8975 -0.7675,0.8975h-1.7175c-0.585,0 -3.6325,-0.205 -6.3325,-3.0525c-3.305,-3.4875 -6.28002,-10.4825 -6.30502,-10.5475c-0.1875,-0.4525 0.20002,-0.695 0.62252,-0.695h3.7875c0.505,0 0.67,0.3075 0.785,0.58c0.135,0.3175 0.63,1.58 1.4425,3c1.3175,2.315 2.125,3.255 2.7725,3.255c0.1214,-0.0014 0.2406,-0.0323 0.3475,-0.09c0.845,-0.47 0.6875,-3.4825 0.65,-4.1075c0,-0.1175 -0.0025,-1.3475 -0.435,-1.9375c-0.31,-0.4275 -0.8375,-0.59 -1.1575,-0.65c0.1295,-0.1787 0.3001,-0.3236 0.4975,-0.4225c0.58,-0.29 1.625,-0.3325 2.6625,-0.3325h0.5775c1.125,0.015 1.415,0.0875 1.8225,0.19c0.825,0.1975 0.8425,0.73 0.77,2.5525c-0.0225,0.5175 -0.045,1.1025 -0.045,1.7925c0,0.15 -0.0075,0.31 -0.0075,0.48c-0.025,0.9275 -0.055,1.98 0.6,2.4125c0.0854,0.0536 0.1841,0.0821 0.285,0.0825c0.2275,0 0.9125,0 2.7675,-3.1825c0.5721,-1.0244 1.0692,-2.0888 1.4875,-3.185c0.0375,-0.065 0.1475,-0.265 0.2775,-0.3425c0.0959,-0.0489 0.2023,-0.0738 0.31,-0.0725h4.4525c0.485,0 0.8175,0.0725 0.88,0.26c0.11,0.2975 -0.02,1.205 -2.0525,3.9575l-0.9075,1.1975c-1.8425,2.415 -1.8425,2.5375 0.115,4.37z"></path></g></g></svg>